osimModel_states
nRows=38
nColumns=17

# SIMM Motion File Header:
name osimModel_states
datacolumns 17
datarows 38
otherdata 1
range 0.96988364 1.13309819
endheader
time	blockToGround_xTranslation	blockToGround_yTranslation	blockToGround_zTranslation	blockToGround_xRotation	blockToGround_yRotation	blockToGround_zRotation	blockToGround_xTranslation_u	blockToGround_yTranslation_u	blockToGround_zTranslation_u	blockToGround_xRotation_u	blockToGround_yRotation_u	blockToGround_zRotation_u	muscle1.activation	muscle1.fiber_length	muscle2.activation	muscle2.fiber_length
      0.96988364	      0.00037756	     -0.00035952	      0.02358338	     -0.22499991	      0.03528328	     -0.04401727	     -0.00024597	     -0.01772748	     -0.44759181	     -3.88668736	     -0.32438263	      0.41282996	      0.33550706	      0.12142420	      0.00007470	      0.07533515
      0.97481389	      0.00037620	     -0.00034103	      0.02140329	     -0.25138608	      0.03281796	     -0.03861400	     -0.00031185	      0.02442120	     -0.43702947	     -6.60159857	     -0.65954315	      1.75615997	      0.34126295	      0.11923259	      0.00006604	      0.07753074
      0.97887937	      0.00037478	     -0.00019939	      0.01963656	     -0.27859352	      0.02960526	     -0.02951552	     -0.00039119	      0.04050973	     -0.43336696	     -6.17330317	     -0.88859326	      2.68314427	      0.34984404	      0.11743793	      0.00005966	      0.07930697
      0.98246641	      0.00037326	     -0.00006510	      0.01807825	     -0.29648027	      0.02613015	     -0.01893864	     -0.00044938	      0.03138318	     -0.43626231	     -3.72571654	     -1.00459808	      3.16573034	      0.35636986	      0.11586337	      0.00005454	      0.08086417
      0.98605344	      0.00037157	      0.00001101	      0.01650303	     -0.30578636	      0.02236445	     -0.00716844	     -0.00049277	      0.00989701	     -0.44229954	     -1.55505497	     -1.05276705	      3.37699700	      0.35981982	      0.11429120	      0.00004986	      0.08243081
      0.98964048	      0.00036973	      0.00000238	      0.01490454	     -0.30800457	      0.01848698	      0.00509824	     -0.00053162	     -0.01456243	     -0.44886891	      0.33625044	     -1.06688441	      3.45215324	      0.36021514	      0.11271456	      0.00004559	      0.08401766
      0.99410566	      0.00036724	     -0.00011971	      0.01288571	     -0.30014447	      0.01369714	      0.02032955	     -0.00059032	     -0.03741510	     -0.45459946	      3.31428436	     -1.02919190	      3.33077850	      0.35947373	      0.11073486	      0.00004077	      0.08602362
      0.99857083	      0.00036442	     -0.00029232	      0.01085556	     -0.27892716	      0.00930429	      0.03415925	     -0.00067453	     -0.03417230	     -0.45321386	      5.71065030	     -0.88754567	      2.79477196	      0.35862874	      0.10873717	      0.00003646	      0.08805012
      1.00303601	      0.00036121	     -0.00037681	      0.00885078	     -0.25521484	      0.00578883	      0.04468775	     -0.00076035	     -0.00056571	     -0.44396147	      4.47116217	     -0.65377311	      1.88277997	      0.36050562	      0.10674032	      0.00003261	      0.09006477
      1.00750119	      0.00035769	     -0.00029654	      0.00689071	     -0.23987847	      0.00346968	      0.05063309	     -0.00080509	      0.03353004	     -0.43478817	      2.65215231	     -0.36722594	      0.75970729	      0.36857969	      0.10475849	      0.00002917	      0.09204009
      1.01135409	      0.00035457	     -0.00014803	      0.00522081	     -0.22911529	      0.00256106	      0.05154967	     -0.00081370	      0.03890896	     -0.43325859	      3.36138038	     -0.10734908	     -0.26363909	      0.37716343	      0.10306342	      0.00002649	      0.09371621
      1.01520699	      0.00035143	     -0.00002853	      0.00354386	     -0.21229023	      0.00255081	      0.04898017	     -0.00082011	      0.02026507	     -0.43795279	      5.34365843	      0.08199302	     -1.01084514	      0.38320701	      0.10137825	      0.00002406	      0.09538840
      1.01905989	      0.00034825	     -0.00000448	      0.00184302	     -0.18872059	      0.00313220	      0.04411241	     -0.00083076	     -0.00835632	     -0.44503719	      6.82828576	      0.20700681	     -1.50126459	      0.38512975	      0.09969346	      0.00002185	      0.09707748
      1.02301209	      0.00034495	     -0.00009338	      0.00007096	     -0.15874805	      0.00422653	      0.03717655	     -0.00083470	     -0.03486327	     -0.45118384	      8.34432079	      0.34288330	     -2.03789332	      0.38470192	      0.09795530	      0.00001979	      0.09883663
      1.02645061	      0.00034211	     -0.00023029	     -0.00148339	     -0.12931804	      0.00567946	      0.02917067	     -0.00080785	     -0.04094640	     -0.45188190	      8.29690394	      0.48910140	     -2.61283513	      0.38399439	      0.09643051	      0.00001816	      0.10038479
      1.02988914	      0.00033945	     -0.00034794	     -0.00302960	     -0.10523870	      0.00757896	      0.01943796	     -0.00073394	     -0.02411628	     -0.44659101	      5.26771735	      0.59619212	     -3.01555501	      0.38386228	      0.09490221	      0.00001667	      0.10193399
      1.03497806	      0.00033611	     -0.00035789	     -0.00526981	     -0.09639955	      0.01085147	      0.00338855	     -0.00057573	      0.02056138	     -0.43378857	     -1.87417632	      0.65933530	     -3.21454324	      0.38988648	      0.09265428	      0.00001468	      0.10419138
      1.04006697	      0.00033350	     -0.00018123	     -0.00745616	     -0.11930386	      0.01413876	     -0.01247200	     -0.00046439	      0.04142301	     -0.42743274	     -6.21717869	      0.60079496	     -2.94591263	      0.40160531	      0.09043495	      0.00001292	      0.10639139
      1.04515588	      0.00033121	     -0.00002120	     -0.00964214	     -0.14932209	      0.01687461	     -0.02603208	     -0.00044709	      0.01572591	     -0.43312930	     -5.08332863	      0.45996150	     -2.38066634	      0.41010572	      0.08823925	      0.00001138	      0.10857197
      1.05024480	      0.00032891	     -0.00004197	     -0.01186919	     -0.17104353	      0.01889976	     -0.03675920	     -0.00045650	     -0.02314399	     -0.44183659	     -3.39122222	      0.31192139	     -1.78882809	      0.41146219	      0.08604381	      0.00001002	      0.11078268
      1.05468099	      0.00032689	     -0.00019439	     -0.01383860	     -0.18210332	      0.01980667	     -0.04271365	     -0.00045423	     -0.04064303	     -0.44471383	     -1.85568087	      0.06644092	     -0.80678833	      0.41076363	      0.08411396	      0.00000897	      0.11274141
      1.05911718	      0.00032488	     -0.00034716	     -0.01580030	     -0.19270207	      0.01941358	     -0.04351375	     -0.00045602	     -0.02262653	     -0.43824573	     -3.47792249	     -0.24472295	      0.44740087	      0.41077138	      0.08217715	      0.00000803	      0.11470594
      1.06412610	      0.00032249	     -0.00035330	     -0.01796285	     -0.21976374	      0.01732491	     -0.03787754	     -0.00050931	      0.02037001	     -0.42522320	     -7.21460348	     -0.57376922	      1.77699224	      0.41732707	      0.08000678	      0.00000708	      0.11688548
      1.06913501	      0.00031971	     -0.00018343	     -0.02007101	     -0.25891614	      0.01370249	     -0.02614704	     -0.00059893	      0.04045176	     -0.41837772	     -7.48662520	     -0.83594310	      2.84795897	      0.42915681	      0.07786848	      0.00000625	      0.11900719
      1.07414393	      0.00031653	     -0.00001890	     -0.02217246	     -0.28852392	      0.00907298	     -0.01034950	     -0.00066637	      0.02061290	     -0.42188171	     -4.29712122	     -0.95707072	      3.36861859	      0.43828713	      0.07575688	      0.00000551	      0.12110543
      1.07915284	      0.00031307	      0.00000091	     -0.02430257	     -0.30333120	      0.00411556	      0.00688305	     -0.00071631	     -0.01297725	     -0.42863742	     -1.63621364	     -0.97616424	      3.48060663	      0.44114355	      0.07365083	      0.00000486	      0.12322190
      1.08416131	      0.00030934	     -0.00013462	     -0.02646165	     -0.30347134	     -0.00075906	      0.02397039	     -0.00077756	     -0.03760207	     -0.43252733	      1.73365430	     -0.91738153	      3.28752973	      0.44074915	      0.07153377	      0.00000429	      0.12536848
      1.08778682	      0.00030641	     -0.00027376	     -0.02802686	     -0.29274087	     -0.00394405	      0.03513358	     -0.00084026	     -0.03542591	     -0.42994114	      3.90402291	     -0.79351379	      2.82308547	      0.44041753	      0.06999426	      0.00000392	      0.12693146
      1.09345322	      0.00030137	     -0.00037070	     -0.03042734	     -0.27148472	     -0.00766119	      0.04785565	     -0.00093091	      0.00561689	     -0.41622573	      3.00399350	     -0.47952060	      1.60544981	      0.44510626	      0.06760097	      0.00000340	      0.12934551
      1.09851010	      0.00029658	     -0.00024860	     -0.03250150	     -0.25955529	     -0.00926012	      0.05265488	     -0.00095201	      0.03754065	     -0.40546981	      2.20740918	     -0.13857112	      0.27268538	      0.45666697	      0.06550003	      0.00000300	      0.13143601
      1.10277991	      0.00029253	     -0.00008888	     -0.03422861	     -0.24612865	     -0.00926495	      0.05152948	     -0.00094593	      0.03228808	     -0.40479941	      4.35351098	      0.11994568	     -0.74504546	      0.46656813	      0.06375467	      0.00000269	      0.13316593
      1.10704973	      0.00028849	     -0.00000346	     -0.03596607	     -0.22266974	     -0.00836167	      0.04688977	     -0.00094674	      0.00571272	     -0.40951234	      6.51097747	      0.28118673	     -1.37755558	      0.47229655	      0.06202298	      0.00000242	      0.13489458
      1.11131955	      0.00028444	     -0.00004582	     -0.03772670	     -0.19117230	     -0.00685925	      0.03993153	     -0.00094815	     -0.02494073	     -0.41494817	      8.26301382	      0.41252565	     -1.89199191	      0.47346227	      0.06029077	      0.00000218	      0.13664171
      1.11485639	      0.00028111	     -0.00016672	     -0.03919866	     -0.15929143	     -0.00514917	      0.03234322	     -0.00092915	     -0.04048952	     -0.41662076	      9.53565312	      0.54596764	     -2.41964072	      0.47313226	      0.05884897	      0.00000199	      0.13810460
      1.11839324	      0.00027793	     -0.00030411	     -0.04066636	     -0.12724574	     -0.00296014	      0.02288250	     -0.00086099	     -0.03315781	     -0.41228080	      8.04077194	      0.67055577	     -2.89797041	      0.47305708	      0.05740404	      0.00000182	      0.13957099
      1.12380970	      0.00027375	     -0.00037292	     -0.04286091	     -0.10085594	      0.00100403	      0.00614503	     -0.00067496	      0.01073046	     -0.39732023	      1.24900362	      0.75957708	     -3.19560939	      0.47915964	      0.05520981	      0.00000159	      0.14178019
      1.12922616	      0.00027057	     -0.00021436	     -0.04497793	     -0.11128168	      0.00508823	     -0.01076868	     -0.00051699	      0.04069548	     -0.38625024	     -4.28162645	      0.71475230	     -2.96843430	      0.49275452	      0.05306202	      0.00000139	      0.14391322
      1.13309819	      0.00026866	     -0.00006949	     -0.04647225	     -0.12909935	      0.00768124	     -0.02144640	     -0.00047849	      0.02960687	     -0.38675571	     -4.41071030	      0.60749449	     -2.53043983	      0.50173457	      0.05155478	      0.00000126	      0.14540717
